<svg width="16" height="18" viewBox="0 0 16 18" fill="none" xmlns="http://www.w3.org/2000/svg">
<g id="delete-w">
<path id="Fill 1" fill-rule="evenodd" clip-rule="evenodd" d="M14.864 3.57528H12.4771V2.13231C12.4771 1.10219 11.6538 0.263672 10.6419 0.263672H4.94933C3.93745 0.263672 3.11418 1.10219 3.11418 2.13231V3.57528H0.727273C0.325333 3.57528 0 3.90713 0 4.31602C0 4.72491 0.325333 5.05676 0.727273 5.05676H1.56121V15.7254C1.56121 16.756 2.38448 17.594 3.39588 17.594H12.1949C13.2068 17.594 14.0301 16.756 14.0301 15.7254V5.05676H14.864C15.2655 5.05676 15.5913 4.72491 15.5913 4.31602C15.5913 3.90713 15.2655 3.57528 14.864 3.57528ZM4.56873 2.13231C4.56873 1.91898 4.73939 1.74515 4.94933 1.74515H10.6419C10.8519 1.74515 11.0225 1.91898 11.0225 2.13231V3.57528H4.56873V2.13231ZM12.5755 15.7254C12.5755 15.9392 12.4048 16.1126 12.1949 16.1126H3.39587C3.18641 16.1126 3.01575 15.9392 3.01575 15.7254V5.05676H12.5755V15.7254Z" fill="#4A225D"/>
<path id="Fill 2" fill-rule="evenodd" clip-rule="evenodd" d="M5.95725 14.6633C6.35871 14.6633 6.68453 14.3319 6.68453 13.9225V6.82375C6.68453 6.41486 6.35871 6.08301 5.95725 6.08301C5.55531 6.08301 5.22998 6.41486 5.22998 6.82375V13.9225C5.22998 14.3319 5.55531 14.6633 5.95725 14.6633Z" fill="#4A225D"/>
<path id="Fill 3" fill-rule="evenodd" clip-rule="evenodd" d="M9.63401 14.6633C10.0355 14.6633 10.3613 14.3319 10.3613 13.9225V6.82375C10.3613 6.41486 10.0355 6.08301 9.63401 6.08301C9.23207 6.08301 8.90674 6.41486 8.90674 6.82375V13.9225C8.90674 14.3319 9.23207 14.6633 9.63401 14.6633Z" fill="#4A225D"/>
</g>
</svg>
